<svg width="38" height="38" viewBox="0 0 38 38" fill="none" xmlns="http://www.w3.org/2000/svg">
<path d="M27.8333 9.5H27.85M10.3333 2H27C31.6024 2 35.3333 5.73096 35.3333 10.3333V27C35.3333 31.6024 31.6024 35.3333 27 35.3333H10.3333C5.73096 35.3333 2 31.6024 2 27V10.3333C2 5.73096 5.73096 2 10.3333 2ZM25.3333 17.6167C25.539 19.0037 25.3021 20.4204 24.6563 21.665C24.0104 22.9097 22.9886 23.919 21.736 24.5495C20.4835 25.1799 19.0641 25.3993 17.6796 25.1766C16.2952 24.9538 15.0163 24.3001 14.0247 23.3086C13.0332 22.3171 12.3796 21.0381 12.1568 19.6537C11.934 18.2693 12.1534 16.8498 12.7839 15.5973C13.4143 14.3448 14.4236 13.3229 15.6683 12.6771C16.913 12.0312 18.3296 11.7943 19.7167 12C21.1315 12.2098 22.4414 12.8691 23.4528 13.8805C24.4642 14.8919 25.1235 16.2018 25.3333 17.6167Z" stroke="#1E1E1E" stroke-width="4" stroke-linecap="round" stroke-linejoin="round"/>
</svg>
