<svg version="1.1" id="Layer_1" xmlns="http://www.w3.org/2000/svg" xmlns:xlink="http://www.w3.org/1999/xlink" x="0px" y="0px"
	 width="100%" viewBox="0 0 1024 1024" enable-background="new 0 0 1024 1024" xml:space="preserve">
<path fill="#000000" opacity="1.000000" stroke="none" 
	d="
M552.000000,1025.000000 
	C368.000000,1025.000000 184.500000,1025.000000 1.000000,1025.000000 
	C1.000000,683.666687 1.000000,342.333344 1.000000,1.000000 
	C342.333344,1.000000 683.666687,1.000000 1025.000000,1.000000 
	C1025.000000,342.333344 1025.000000,683.666687 1025.000000,1025.000000 
	C867.500000,1025.000000 710.000000,1025.000000 552.000000,1025.000000 
M577.785156,879.984619 
	C578.505920,879.832153 579.226624,879.679749 580.862305,879.434998 
	C588.458374,879.293762 596.057129,879.232788 603.649109,878.972473 
	C606.772766,878.865417 609.881714,878.329102 613.924072,877.872620 
	C618.624207,877.910583 623.324280,877.948547 628.081177,878.536194 
	C628.379456,878.352966 628.677673,878.169800 629.805969,877.862305 
	C631.200562,877.909485 632.595215,877.956665 633.738831,878.760437 
	C632.933899,878.949707 632.128967,879.139038 631.324097,879.328308 
	C631.361023,879.443848 631.398010,879.559326 631.434998,879.674805 
	C644.942078,879.674805 658.449097,879.674805 672.790405,879.873657 
	C676.544495,879.581299 680.303406,879.339783 684.050964,878.979370 
	C686.705811,878.724121 689.345276,878.308289 692.920166,877.858093 
	C697.626221,877.898438 702.332275,877.938721 707.084717,878.527161 
	C707.376831,878.344238 707.669006,878.161316 708.893005,877.852600 
	C713.954834,877.887817 719.016724,877.922974 724.093262,878.502686 
	C724.369934,878.321167 724.646606,878.139587 725.819885,877.832520 
	C727.932312,877.860718 730.044678,877.888916 732.125854,878.441528 
	C732.350098,878.259827 732.574341,878.078125 733.658020,877.784058 
	C739.427063,877.075500 745.196045,876.367004 751.515259,875.854187 
	C751.685547,875.759705 751.855774,875.665222 752.756042,875.653809 
	C754.159241,875.325500 755.562500,874.997192 757.478333,874.880066 
	C757.661133,874.852905 757.843872,874.825806 758.796509,874.722900 
	C759.194214,874.457275 759.560364,874.036621 759.994202,873.948303 
	C790.824951,867.669678 815.667542,851.679932 835.021057,827.137268 
	C844.322754,815.341614 852.082336,802.471680 857.786743,788.541748 
	C865.010498,770.901672 871.698608,753.043091 878.801880,735.352661 
	C887.747925,713.072815 894.050903,690.506287 890.009033,666.040100 
	C886.874878,647.068298 880.000610,629.897217 867.435730,615.323303 
	C862.984009,610.159668 857.421997,605.953308 852.558716,601.486145 
	C857.803589,595.692017 864.119812,590.161377 868.631348,583.422485 
	C877.406433,570.314819 884.228027,556.094360 890.134583,541.395874 
	C900.533875,515.517639 908.637817,489.419617 904.947632,460.890808 
	C903.574463,450.275085 896.305298,427.853180 890.030640,417.293121 
	C880.168701,400.696075 867.619995,386.791779 851.463989,376.175842 
	C849.655823,374.987701 847.900146,373.699493 846.248596,372.305450 
	C845.760010,371.893036 845.711792,370.958984 845.461792,370.263977 
	C843.973999,373.143402 842.538513,370.794586 841.136780,370.186157 
	C834.871094,367.466400 828.863159,363.981903 822.038513,362.834778 
	C810.107117,360.829346 798.183594,358.557159 786.160339,357.390045 
	C777.151062,356.515503 767.990356,357.205078 758.897095,357.187622 
	C756.632507,357.183289 754.368042,357.118317 752.103516,357.114838 
	C745.389465,357.104614 738.675415,357.111176 731.827881,357.111176 
	C731.916199,355.999603 731.813416,355.284363 732.042908,354.699554 
	C737.744263,340.171356 743.344116,325.601044 749.252808,311.157166 
	C754.270447,298.891266 758.876465,286.498077 759.784363,273.178497 
	C761.583435,246.784805 755.221069,222.504364 741.020569,200.040100 
	C730.528137,183.441711 717.093506,170.154633 700.148071,160.465408 
	C694.408081,157.183334 688.173279,154.736618 682.075500,152.115570 
	C660.045837,142.646484 636.465820,146.028946 613.537720,144.104828 
	C606.368347,143.503189 599.093994,144.279907 591.876282,144.093643 
	C583.157776,143.868652 574.353149,146.274323 565.712769,143.319092 
	C565.502686,143.247238 565.176880,143.615891 564.887756,143.656769 
	C561.404175,144.149323 557.916687,145.019226 554.431458,145.013184 
	C546.512512,144.999481 538.596130,144.425690 530.675354,144.313782 
	C521.176270,144.179596 511.673828,144.288345 502.172821,144.293228 
	C486.258087,144.301392 470.343292,144.333740 454.428589,144.313126 
	C437.677612,144.291428 420.926544,144.165054 404.175781,144.199951 
	C398.528198,144.211716 392.880646,144.766830 387.234344,144.744919 
	C370.746246,144.680908 354.259033,144.382004 337.770996,144.328491 
	C332.855743,144.312531 327.939758,144.988754 323.022522,145.012085 
	C317.056976,145.040405 311.089813,144.574463 305.123291,144.573364 
	C297.027130,144.571884 288.929993,144.954025 280.835022,144.901108 
	C273.092712,144.850494 265.352692,144.453644 259.060059,144.254761 
	C249.401627,170.192230 240.292831,194.653687 231.274857,218.871216 
	C237.085373,219.156662 242.649338,219.660248 248.213165,219.658585 
	C262.758087,219.654266 277.302948,219.319275 291.847839,219.319336 
	C310.434906,219.319427 329.021820,219.574753 347.609070,219.620422 
	C385.099609,219.712540 422.590302,219.766907 460.080933,219.783112 
	C518.498230,219.808380 576.915771,219.891052 635.332520,219.709335 
	C648.302246,219.668976 659.469543,223.899750 668.699280,232.545654 
	C671.835144,235.483124 676.784668,238.177185 675.422424,244.080872 
	C675.397034,244.319000 675.371582,244.557144 675.346191,244.795258 
	C675.733521,244.682678 676.120850,244.570099 677.127014,244.127716 
	C678.463867,246.929596 680.109436,249.628906 681.080811,252.552231 
	C684.242981,262.068573 684.073242,271.680695 680.634705,281.064819 
	C676.663940,291.901764 671.950378,302.477936 668.270447,313.406799 
	C664.767700,323.809357 659.733521,333.564575 656.432007,344.067047 
	C653.099243,354.668701 648.462097,364.857788 644.463257,375.253326 
	C639.615112,387.856628 634.899597,400.511200 630.002380,413.095215 
	C627.522583,419.467316 624.769531,425.733124 622.047241,432.269653 
	C622.174133,432.330017 622.727905,432.828705 623.269592,432.815948 
	C631.714111,432.617584 640.157837,432.115143 648.600159,432.145813 
	C681.778503,432.266357 714.956177,432.574615 748.134338,432.760742 
	C761.114441,432.833557 774.114197,432.325409 787.070923,432.879395 
	C802.737366,433.549225 814.721985,440.761810 822.087036,454.998932 
	C823.105164,456.967072 825.194458,458.506622 825.803162,460.539429 
	C828.597717,469.871735 830.381592,479.513062 827.513611,489.034424 
	C824.337769,499.577759 820.426270,509.916504 816.473694,520.205505 
	C807.009949,544.840454 797.316223,569.386902 787.749634,593.982483 
	C779.635803,614.843018 771.569946,635.722168 763.395142,656.819641 
	C764.353210,656.891785 764.976929,656.934998 765.599976,656.986328 
	C778.885132,658.080505 793.230347,653.075867 804.837646,663.834412 
	C807.011475,665.849304 810.032959,667.364807 811.348572,669.816284 
	C816.201538,678.859192 815.195129,688.457642 811.816101,697.590515 
	C803.334961,720.513367 794.805725,743.435791 785.494202,766.028015 
	C778.866699,782.108215 767.497131,794.441467 750.477356,799.676636 
	C742.519470,802.124390 733.816467,802.263916 725.417725,803.122009 
	C720.282959,803.646606 715.066772,803.893616 709.920105,803.627930 
	C705.340210,803.391479 700.816650,801.833313 696.246887,801.720215 
	C693.579468,801.654236 690.870056,803.279785 687.670471,804.307922 
	C693.479492,787.837830 698.984131,772.339661 704.410095,756.813965 
	C709.276062,742.891052 714.122620,729.039001 711.985168,713.774414 
	C709.983093,699.476196 704.596436,687.397522 691.755493,679.243225 
	C693.114624,678.437317 694.064819,677.810486 695.069214,677.287781 
	C710.676086,669.165405 721.934753,656.523376 728.640503,640.753723 
	C736.156982,623.077698 741.968018,604.650024 747.998840,586.377136 
	C752.668823,572.227417 753.846558,557.735596 748.824890,543.312988 
	C742.053894,523.866455 728.182434,511.710205 708.221069,508.477325 
	C692.288818,505.896912 675.921021,505.788910 659.724304,505.130615 
	C647.819641,504.646820 635.877136,504.921478 623.954956,505.096466 
	C615.243469,505.224304 606.539978,505.931854 597.828796,506.038086 
	C584.165833,506.204773 570.498047,505.990936 556.835938,506.189087 
	C554.975220,506.216034 552.369202,507.166199 551.406860,508.575592 
	C543.568604,520.055298 533.739990,529.565002 522.761292,537.887085 
	C492.390076,560.908936 457.929932,572.296326 419.960327,573.134888 
	C405.137238,573.462280 390.301300,573.241394 375.471436,573.191711 
	C373.122864,573.183838 371.886444,573.485352 370.875000,576.238342 
	C362.271423,599.656067 353.322479,622.946655 344.524231,646.293152 
	C336.068573,668.730713 327.693237,691.198425 319.238190,713.636169 
	C310.544586,736.706848 301.683167,759.715027 293.108612,782.829712 
	C285.850952,802.394348 278.951263,822.091492 271.790283,841.692383 
	C267.611237,853.131165 263.230194,864.496155 258.261475,875.780273 
	C258.009277,875.034241 257.757050,874.288208 257.504822,873.542114 
	C257.139679,873.760986 256.774567,873.979858 256.409424,874.198730 
	C257.270355,875.444519 258.131287,876.690369 259.925140,877.826904 
	C272.952362,877.873291 285.979614,877.919678 299.215424,878.672424 
	C300.475250,878.441040 301.735077,878.209595 303.794342,877.866089 
	C304.867493,877.908142 305.940643,877.950256 307.078552,878.543030 
	C307.381226,878.359497 307.683868,878.175964 308.839508,877.868835 
	C310.561218,877.904846 312.282898,877.940857 314.217438,878.681091 
	C315.477051,878.448669 316.736694,878.216248 318.825439,877.868164 
	C320.217987,877.906982 321.610565,877.945801 323.355286,878.790771 
	C342.188263,878.874695 361.021271,878.958679 380.239868,879.818848 
	C383.147614,879.787170 386.055328,879.755554 389.476257,879.943848 
	C389.661133,879.922546 389.846008,879.901306 390.887238,880.049072 
	C392.918640,879.992004 394.950073,879.934875 397.505859,879.963440 
	C397.680786,879.935608 397.855713,879.907776 398.753876,880.048828 
	C399.490051,879.992920 400.226227,879.937012 401.858032,879.972961 
	C404.250366,879.890015 406.642670,879.807007 409.623413,879.828430 
	C410.084961,879.553162 410.546509,879.277893 411.861847,879.001770 
	C417.364410,880.614441 422.752258,880.444092 428.790405,877.855957 
	C429.862946,877.890686 430.935455,877.925415 432.214691,878.667542 
	C433.474579,878.436890 434.734467,878.206299 436.868347,877.865112 
	C438.921631,877.904907 440.974884,877.944702 443.082275,878.533630 
	C443.378815,878.350525 443.675385,878.167358 444.845062,877.860229 
	C446.900238,877.889282 448.955444,877.918274 451.213348,878.657593 
	C452.471832,878.422363 453.730286,878.187134 455.740784,877.852661 
	C456.497131,877.885620 457.253448,877.918579 458.348419,878.764709 
	C459.673370,878.840027 460.998169,878.976318 462.323334,878.980591 
	C470.320221,879.006409 478.321960,878.827698 486.313049,879.047241 
	C499.562378,879.411255 512.803589,880.376892 526.050537,880.422546 
	C536.705505,880.459229 547.361267,879.443481 558.021912,879.027832 
	C563.003418,878.833618 567.997253,878.954041 573.298645,879.633911 
	C574.548401,879.684998 575.798218,879.736084 577.785156,879.984619 
M258.093933,284.254608 
	C257.923920,283.847290 257.753876,283.440002 257.583832,283.032684 
	C257.399536,283.686676 257.215271,284.340698 256.109192,285.202637 
	C240.298630,285.198486 224.487732,285.244781 208.677826,285.140717 
	C206.033432,285.123322 204.365585,285.759674 203.371826,288.405975 
	C200.279861,296.639618 196.962646,304.788300 193.809219,312.999298 
	C187.958679,328.233124 182.182663,343.495514 176.336945,358.731201 
	C171.319519,371.808228 166.233414,384.858887 161.210403,397.933746 
	C159.862259,401.442993 158.635544,404.998779 157.349503,408.531921 
	C156.011963,412.206635 154.700851,415.891418 153.321335,419.550323 
	C151.995148,423.067749 150.567184,426.546753 149.237213,430.062775 
	C147.851608,433.725739 146.551178,437.420898 145.173782,441.087006 
	C143.850479,444.609253 142.460129,448.106201 141.128876,451.625488 
	C139.759491,455.245605 138.431824,458.881439 137.075043,462.506348 
	C135.759399,466.021393 135.104584,470.051941 132.911804,472.893127 
	C130.830414,475.589966 130.778687,478.594208 129.684662,481.374847 
	C123.780769,496.380463 118.134018,511.487427 112.425354,526.569580 
	C109.947350,533.116394 107.533409,539.687439 104.876007,546.823059 
	C132.613831,546.823059 159.881821,546.858704 187.148621,546.694702 
	C188.258804,546.688110 189.823517,545.005676 190.378326,543.751099 
	C192.403717,539.171326 194.072632,534.434631 195.907913,529.769714 
	C203.163361,511.327789 210.471756,492.906525 217.682892,474.447296 
	C225.307098,454.930695 232.832535,435.375549 240.420471,415.844757 
	C247.207489,398.375488 253.957214,380.890808 260.948395,363.503387 
	C261.484100,362.171173 263.959961,360.638458 265.258911,360.854340 
	C266.718597,361.096924 268.879883,363.168762 268.948486,364.534607 
	C269.117584,367.901428 268.888000,371.553131 267.719452,374.679413 
	C260.018372,395.282990 252.015762,415.773712 244.132126,436.309204 
	C232.100464,467.649567 220.078812,498.993774 208.065567,530.341187 
	C198.077316,556.404602 188.080048,582.464600 178.139282,608.546143 
	C172.063080,624.488220 166.085220,640.467834 160.064926,656.431152 
	C156.679825,665.407166 153.298248,674.384521 149.751785,683.794556 
	C166.423004,683.794556 182.434097,683.795837 198.445175,683.794067 
	C208.372192,683.793030 218.300461,683.864563 228.224976,683.705078 
	C229.811798,683.679565 232.405289,683.000549 232.801178,681.962769 
	C236.717529,671.696899 240.106628,661.231140 243.952682,650.936951 
	C256.619080,617.034485 269.384033,583.168579 282.279297,549.352783 
	C282.737854,548.150269 284.895325,547.132568 286.397827,546.895386 
	C288.905762,546.499451 291.524506,546.794861 294.096466,546.816284 
	C334.037231,547.148315 373.977570,547.572998 413.918976,547.779602 
	C434.060577,547.883789 454.253723,548.738281 474.118958,543.911194 
	C508.122192,535.648560 532.960815,516.161987 546.220703,483.584625 
	C559.559265,450.814026 571.778076,417.588531 584.588379,384.601532 
	C588.901123,373.496033 594.094666,362.562439 594.680420,350.499359 
	C595.800293,327.434875 587.002686,309.136292 567.531494,296.049835 
	C559.094116,290.379181 549.447693,287.788086 540.021179,285.896271 
	C529.502319,283.785248 518.393982,284.284943 507.540771,284.258423 
	C496.690582,284.231934 485.841095,285.183380 474.986816,285.305481 
	C457.690216,285.500122 440.389893,285.362732 422.502533,285.095825 
	C422.304901,285.182617 422.107269,285.269379 420.987305,285.272858 
	C404.651581,285.231934 388.315887,285.191040 371.881165,284.471680 
	C371.261993,284.699432 370.642853,284.927155 369.132568,285.276459 
	C366.736816,285.196869 364.341095,285.117310 361.911896,284.491028 
	C361.633026,284.678009 361.354156,284.864960 360.144012,285.237305 
	C353.124542,285.256042 346.105042,285.274780 338.491486,285.083527 
	C338.298584,285.166565 338.105652,285.249634 337.206879,285.254883 
	C336.498199,285.280823 335.789551,285.306732 334.281860,285.048950 
	C333.165222,285.132812 332.048615,285.216644 330.008362,285.208405 
	C324.035736,285.257629 318.063141,285.306885 311.506165,285.091705 
	C311.308075,285.172150 311.110016,285.252594 309.987732,285.270660 
	C298.021332,285.291290 286.054932,285.311920 273.500702,285.088470 
	C273.304779,285.169830 273.108856,285.251221 271.993805,285.288086 
	C267.932983,285.229309 263.872192,285.170532 259.916199,284.554413 
	C259.657379,284.733948 259.398590,284.913513 258.524963,285.261200 
	C258.329987,285.176819 258.134979,285.092407 258.093933,284.254608 
z"/>
<path fill="#FEFEFE" opacity="1.000000" stroke="none" 
	d="
M299.006836,877.966064 
	C285.979614,877.919678 272.952362,877.873291 259.528320,877.543457 
	C259.067688,876.804810 259.003845,876.349609 258.940033,875.894348 
	C263.230194,864.496155 267.611237,853.131165 271.790283,841.692383 
	C278.951263,822.091492 285.850952,802.394348 293.108612,782.829712 
	C301.683167,759.715027 310.544586,736.706848 319.238190,713.636169 
	C327.693237,691.198425 336.068573,668.730713 344.524231,646.293152 
	C353.322479,622.946655 362.271423,599.656067 370.875000,576.238342 
	C371.886444,573.485352 373.122864,573.183838 375.471436,573.191711 
	C390.301300,573.241394 405.137238,573.462280 419.960327,573.134888 
	C457.929932,572.296326 492.390076,560.908936 522.761292,537.887085 
	C533.739990,529.565002 543.568604,520.055298 551.406860,508.575592 
	C552.369202,507.166199 554.975220,506.216034 556.835938,506.189087 
	C570.498047,505.990936 584.165833,506.204773 597.828796,506.038086 
	C606.539978,505.931854 615.243469,505.224304 623.954956,505.096466 
	C635.877136,504.921478 647.819641,504.646820 659.724304,505.130615 
	C675.921021,505.788910 692.288818,505.896912 708.221069,508.477325 
	C728.182434,511.710205 742.053894,523.866455 748.824890,543.312988 
	C753.846558,557.735596 752.668823,572.227417 747.998840,586.377136 
	C741.968018,604.650024 736.156982,623.077698 728.640503,640.753723 
	C721.934753,656.523376 710.676086,669.165405 695.069214,677.287781 
	C694.064819,677.810486 693.114624,678.437317 691.755493,679.243225 
	C704.596436,687.397522 709.983093,699.476196 711.985168,713.774414 
	C714.122620,729.039001 709.276062,742.891052 704.410095,756.813965 
	C698.984131,772.339661 693.479492,787.837830 687.670471,804.307922 
	C690.870056,803.279785 693.579468,801.654236 696.246887,801.720215 
	C700.816650,801.833313 705.340210,803.391479 709.920105,803.627930 
	C715.066772,803.893616 720.282959,803.646606 725.417725,803.122009 
	C733.816467,802.263916 742.519470,802.124390 750.477356,799.676636 
	C767.497131,794.441467 778.866699,782.108215 785.494202,766.028015 
	C794.805725,743.435791 803.334961,720.513367 811.816101,697.590515 
	C815.195129,688.457642 816.201538,678.859192 811.348572,669.816284 
	C810.032959,667.364807 807.011475,665.849304 804.837646,663.834412 
	C793.230347,653.075867 778.885132,658.080505 765.599976,656.986328 
	C764.976929,656.934998 764.353210,656.891785 763.395142,656.819641 
	C771.569946,635.722168 779.635803,614.843018 787.749634,593.982483 
	C797.316223,569.386902 807.009949,544.840454 816.473694,520.205505 
	C820.426270,509.916504 824.337769,499.577759 827.513611,489.034424 
	C830.381592,479.513062 828.597717,469.871735 825.803162,460.539429 
	C825.194458,458.506622 823.105164,456.967072 822.087036,454.998932 
	C814.721985,440.761810 802.737366,433.549225 787.070923,432.879395 
	C774.114197,432.325409 761.114441,432.833557 748.134338,432.760742 
	C714.956177,432.574615 681.778503,432.266357 648.600159,432.145813 
	C640.157837,432.115143 631.714111,432.617584 623.269592,432.815948 
	C622.727905,432.828705 622.174133,432.330017 622.047241,432.269653 
	C624.769531,425.733124 627.522583,419.467316 630.002380,413.095215 
	C634.899597,400.511200 639.615112,387.856628 644.463257,375.253326 
	C648.462097,364.857788 653.099243,354.668701 656.432007,344.067047 
	C659.733521,333.564575 664.767700,323.809357 668.270447,313.406799 
	C671.950378,302.477936 676.663940,291.901764 680.634705,281.064819 
	C684.073242,271.680695 684.242981,262.068573 681.080811,252.552231 
	C680.109436,249.628906 678.463867,246.929596 676.690796,244.175110 
	C676.254517,244.222519 675.994202,243.994781 675.994202,243.994781 
	C676.784668,238.177185 671.835144,235.483124 668.699280,232.545654 
	C659.469543,223.899750 648.302246,219.668976 635.332520,219.709335 
	C576.915771,219.891052 518.498230,219.808380 460.080933,219.783112 
	C422.590302,219.766907 385.099609,219.712540 347.609070,219.620422 
	C329.021820,219.574753 310.434906,219.319427 291.847839,219.319336 
	C277.302948,219.319275 262.758087,219.654266 248.213165,219.658585 
	C242.649338,219.660248 237.085373,219.156662 231.274857,218.871216 
	C240.292831,194.653687 249.401627,170.192230 259.060059,144.254761 
	C265.352692,144.453644 273.092712,144.850494 280.835022,144.901108 
	C288.929993,144.954025 297.027130,144.571884 305.123291,144.573364 
	C311.089813,144.574463 317.056976,145.040405 323.022522,145.012085 
	C327.939758,144.988754 332.855743,144.312531 337.770996,144.328491 
	C354.259033,144.382004 370.746246,144.680908 387.234344,144.744919 
	C392.880646,144.766830 398.528198,144.211716 404.175781,144.199951 
	C420.926544,144.165054 437.677612,144.291428 454.428589,144.313126 
	C470.343292,144.333740 486.258087,144.301392 502.172821,144.293228 
	C511.673828,144.288345 521.176270,144.179596 530.675354,144.313782 
	C538.596130,144.425690 546.512512,144.999481 554.431458,145.013184 
	C557.916687,145.019226 561.404175,144.149323 564.887756,143.656769 
	C565.176880,143.615891 565.502686,143.247238 565.712769,143.319092 
	C574.353149,146.274323 583.157776,143.868652 591.876282,144.093643 
	C599.093994,144.279907 606.368347,143.503189 613.537720,144.104828 
	C636.465820,146.028946 660.045837,142.646484 682.075500,152.115570 
	C688.173279,154.736618 694.408081,157.183334 700.148071,160.465408 
	C717.093506,170.154633 730.528137,183.441711 741.020569,200.040100 
	C755.221069,222.504364 761.583435,246.784805 759.784363,273.178497 
	C758.876465,286.498077 754.270447,298.891266 749.252808,311.157166 
	C743.344116,325.601044 737.744263,340.171356 732.042908,354.699554 
	C731.813416,355.284363 731.916199,355.999603 731.827881,357.111176 
	C738.675415,357.111176 745.389465,357.104614 752.103516,357.114838 
	C754.368042,357.118317 756.632507,357.183289 758.897095,357.187622 
	C767.990356,357.205078 777.151062,356.515503 786.160339,357.390045 
	C798.183594,358.557159 810.107117,360.829346 822.038513,362.834778 
	C828.863159,363.981903 834.871094,367.466400 841.136780,370.186157 
	C842.538513,370.794586 843.973999,373.143402 845.461792,370.263977 
	C845.711792,370.958984 845.760010,371.893036 846.248596,372.305450 
	C847.900146,373.699493 849.655823,374.987701 851.463989,376.175842 
	C867.619995,386.791779 880.168701,400.696075 890.030640,417.293121 
	C896.305298,427.853180 903.574463,450.275085 904.947632,460.890808 
	C908.637817,489.419617 900.533875,515.517639 890.134583,541.395874 
	C884.228027,556.094360 877.406433,570.314819 868.631348,583.422485 
	C864.119812,590.161377 857.803589,595.692017 852.558716,601.486145 
	C857.421997,605.953308 862.984009,610.159668 867.435730,615.323303 
	C880.000610,629.897217 886.874878,647.068298 890.009033,666.040100 
	C894.050903,690.506287 887.747925,713.072815 878.801880,735.352661 
	C871.698608,753.043091 865.010498,770.901672 857.786743,788.541748 
	C852.082336,802.471680 844.322754,815.341614 835.021057,827.137268 
	C815.667542,851.679932 790.824951,867.669678 759.994202,873.948303 
	C759.560364,874.036621 759.194214,874.457275 758.334839,874.572571 
	C757.570740,874.504517 757.268250,874.586731 756.965759,874.668945 
	C755.562500,874.997192 754.159241,875.325500 752.302490,875.434448 
	C751.554321,875.362854 751.259705,875.510681 750.965088,875.658447 
	C745.196045,876.367004 739.427063,877.075500 733.064331,877.735352 
	C732.470703,877.686584 732.157104,877.917114 732.157104,877.917114 
	C730.044678,877.888916 727.932312,877.860718 725.160400,877.821777 
	C724.500916,877.810974 724.078552,877.958191 724.078552,877.958191 
	C719.016724,877.922974 713.954834,877.887817 708.196350,877.859314 
	C707.499695,877.866028 707.038330,877.979004 707.038330,877.979004 
	C702.332275,877.938721 697.626221,877.898438 692.185974,877.590088 
	C684.987488,877.538513 678.523254,877.754944 671.588867,877.921021 
	C659.751404,877.915833 648.384155,877.961060 636.827087,877.948486 
	C636.637329,877.890686 636.240601,877.885437 636.096680,877.688354 
	C635.550049,877.622131 635.147400,877.752869 634.551392,877.884460 
	C634.357971,877.885315 633.989807,878.003906 633.989807,878.003906 
	C632.595215,877.956665 631.200562,877.909485 629.153076,877.875244 
	C628.500183,877.888245 628.024414,877.986572 628.024414,877.986572 
	C623.324280,877.948547 618.624207,877.910583 613.190308,877.608887 
	C603.348816,877.232300 594.241089,877.066833 585.133179,877.053650 
	C583.423645,877.051147 581.713257,877.656982 579.635132,877.925903 
	C578.527588,877.920959 577.788147,877.972168 576.773682,878.012817 
	C576.315247,878.009583 576.131897,878.016907 575.584229,877.949768 
	C574.479431,877.913757 573.738892,877.952087 572.727783,877.669067 
	C571.807007,877.236328 571.156860,877.027893 570.506653,877.027466 
	C534.225647,877.004333 497.944611,876.989197 461.663635,877.031494 
	C460.445312,877.032898 459.227722,877.631409 458.009796,877.951538 
	C457.253448,877.918579 456.497131,877.885620 455.189240,877.611694 
	C453.428680,877.562866 452.219635,877.755127 451.010620,877.947266 
	C448.955444,877.918274 446.900238,877.889282 444.172546,877.870911 
	C443.500031,877.881592 443.028168,877.984497 443.028168,877.984497 
	C440.974884,877.944702 438.921631,877.904907 436.254333,877.629883 
	C434.429535,877.583069 433.218750,877.771606 432.007996,877.960144 
	C430.935455,877.925415 429.862946,877.890686 428.120544,877.589233 
	C426.799347,877.216858 426.148071,877.019043 425.496735,877.018799 
	C392.548553,877.004517 359.600342,876.996704 326.652252,877.049072 
	C325.435364,877.050964 324.219452,877.658997 323.003113,877.984619 
	C321.610565,877.945801 320.217987,877.906982 318.232544,877.635803 
	C316.427948,877.594604 315.216278,877.785706 314.004608,877.976868 
	C312.282898,877.940857 310.561218,877.904846 308.169861,877.886292 
	C307.500183,877.903748 307.013794,877.992310 307.013794,877.992310 
	C305.940643,877.950256 304.867493,877.908142 303.217163,877.631714 
	C301.428955,877.586853 300.217896,877.776428 299.006836,877.966064 
M469.010651,802.551697 
	C472.898895,802.303650 477.019897,804.762878 480.784393,802.090149 
	C481.849182,802.387024 483.178894,803.098389 484.492065,803.068970 
	C493.522736,802.867371 502.548035,802.371033 511.578918,802.245422 
	C519.771484,802.131470 527.971252,802.273438 536.163513,802.478027 
	C542.764526,802.642944 549.359314,803.061523 555.956116,803.383728 
	C558.890747,803.527039 561.826233,803.884338 564.756226,803.835754 
	C569.429871,803.758423 574.100647,803.204651 578.770081,803.236511 
	C594.639465,803.345032 609.213806,799.320435 617.368896,784.942261 
	C623.437683,774.242310 627.613037,762.171326 630.806213,750.223145 
	C633.844421,738.854736 628.225403,730.897644 616.772278,728.353577 
	C610.742310,727.014099 604.307068,727.310425 598.050415,727.236572 
	C592.607178,727.172241 587.155701,727.847351 581.711670,727.795715 
	C574.573242,727.728027 567.436890,727.002319 560.302612,727.044250 
	C551.698303,727.094849 543.099731,727.800110 534.493835,727.958313 
	C520.998962,728.206543 507.500305,728.286987 494.002869,728.329956 
	C488.153076,728.348572 482.302948,728.044312 476.451965,727.979980 
	C466.960083,727.875549 457.467377,727.827148 447.974915,727.795349 
	C441.673218,727.774292 435.368866,727.941895 429.070099,727.811646 
	C420.739197,727.639465 412.413788,727.218079 404.083771,726.982666 
	C399.067169,726.840881 395.600616,728.262024 394.123444,734.015869 
	C392.349976,740.923645 389.318909,747.508179 386.837341,754.234497 
	C380.792664,770.618713 374.750854,787.003967 368.804321,803.127258 
	C379.928375,803.127258 390.732697,803.219116 401.533112,803.052917 
	C403.802368,803.018066 406.085297,801.487915 408.312653,801.602783 
	C412.961365,801.842468 417.769897,803.858459 422.168793,803.113525 
	C433.479309,801.198303 444.787476,804.958313 456.094818,802.248535 
	C459.909637,801.334351 464.290863,802.783508 469.010651,802.551697 
M669.121765,592.622253 
	C668.415039,591.547974 667.138184,590.495544 667.095947,589.395691 
	C666.855652,583.141479 662.542725,580.830566 657.522339,579.910339 
	C651.604004,578.825500 645.534241,578.056519 639.527893,578.041138 
	C582.399963,577.895691 525.271606,577.938904 468.143341,577.930176 
	C464.479156,577.929565 460.743622,577.519226 457.177185,578.114136 
	C454.983978,578.480042 451.937775,579.922791 451.184601,581.694214 
	C447.238770,590.974792 443.897797,600.512817 440.357117,609.965332 
	C434.785278,624.840393 429.221832,639.718628 423.549316,654.877441 
	C433.450928,655.682922 442.700562,654.100037 451.997101,654.968201 
	C458.886566,655.611450 465.883850,655.100891 472.833099,655.102844 
	C495.595734,655.109070 518.359192,655.235474 541.120850,655.089539 
	C568.689087,654.912781 596.260986,654.719360 623.820007,654.060486 
	C631.522522,653.876282 638.822327,651.094055 644.862732,645.875488 
	C652.203979,639.532959 657.045410,631.531677 660.033813,622.403992 
	C663.176819,612.803894 666.112854,603.136108 669.121765,592.622253 
z"/>
<path fill="#FEFEFE" opacity="1.000000" stroke="none" 
	d="
M339.085571,285.293518 
	C346.105042,285.274780 353.124542,285.256042 360.828796,285.240845 
	C361.513580,285.244415 361.945343,285.037720 361.945343,285.037720 
	C364.341095,285.117310 366.736816,285.196869 369.663910,285.487854 
	C370.790222,285.516174 371.385193,285.333160 371.980164,285.150146 
	C388.315887,285.191040 404.651581,285.231934 421.535339,285.513153 
	C422.419312,285.624237 422.755219,285.495026 423.091125,285.365784 
	C440.389893,285.362732 457.690216,285.500122 474.986816,285.305481 
	C485.841095,285.183380 496.690582,284.231934 507.540771,284.258423 
	C518.393982,284.284943 529.502319,283.785248 540.021179,285.896271 
	C549.447693,287.788086 559.094116,290.379181 567.531494,296.049835 
	C587.002686,309.136292 595.800293,327.434875 594.680420,350.499359 
	C594.094666,362.562439 588.901123,373.496033 584.588379,384.601532 
	C571.778076,417.588531 559.559265,450.814026 546.220703,483.584625 
	C532.960815,516.161987 508.122192,535.648560 474.118958,543.911194 
	C454.253723,548.738281 434.060577,547.883789 413.918976,547.779602 
	C373.977570,547.572998 334.037231,547.148315 294.096466,546.816284 
	C291.524506,546.794861 288.905762,546.499451 286.397827,546.895386 
	C284.895325,547.132568 282.737854,548.150269 282.279297,549.352783 
	C269.384033,583.168579 256.619080,617.034485 243.952682,650.936951 
	C240.106628,661.231140 236.717529,671.696899 232.801178,681.962769 
	C232.405289,683.000549 229.811798,683.679565 228.224976,683.705078 
	C218.300461,683.864563 208.372192,683.793030 198.445175,683.794067 
	C182.434097,683.795837 166.423004,683.794556 149.751785,683.794556 
	C153.298248,674.384521 156.679825,665.407166 160.064926,656.431152 
	C166.085220,640.467834 172.063080,624.488220 178.139282,608.546143 
	C188.080048,582.464600 198.077316,556.404602 208.065567,530.341187 
	C220.078812,498.993774 232.100464,467.649567 244.132126,436.309204 
	C252.015762,415.773712 260.018372,395.282990 267.719452,374.679413 
	C268.888000,371.553131 269.117584,367.901428 268.948486,364.534607 
	C268.879883,363.168762 266.718597,361.096924 265.258911,360.854340 
	C263.959961,360.638458 261.484100,362.171173 260.948395,363.503387 
	C253.957214,380.890808 247.207489,398.375488 240.420471,415.844757 
	C232.832535,435.375549 225.307098,454.930695 217.682892,474.447296 
	C210.471756,492.906525 203.163361,511.327789 195.907913,529.769714 
	C194.072632,534.434631 192.403717,539.171326 190.378326,543.751099 
	C189.823517,545.005676 188.258804,546.688110 187.148621,546.694702 
	C159.881821,546.858704 132.613831,546.823059 104.876007,546.823059 
	C107.533409,539.687439 109.947350,533.116394 112.425354,526.569580 
	C118.134018,511.487427 123.780769,496.380463 129.684662,481.374847 
	C130.778687,478.594208 130.830414,475.589966 132.911804,472.893127 
	C135.104584,470.051941 135.759399,466.021393 137.075043,462.506348 
	C138.431824,458.881439 139.759491,455.245605 141.128876,451.625488 
	C142.460129,448.106201 143.850479,444.609253 145.173782,441.087006 
	C146.551178,437.420898 147.851608,433.725739 149.237213,430.062775 
	C150.567184,426.546753 151.995148,423.067749 153.321335,419.550323 
	C154.700851,415.891418 156.011963,412.206635 157.349503,408.531921 
	C158.635544,404.998779 159.862259,401.442993 161.210403,397.933746 
	C166.233414,384.858887 171.319519,371.808228 176.336945,358.731201 
	C182.182663,343.495514 187.958679,328.233124 193.809219,312.999298 
	C196.962646,304.788300 200.279861,296.639618 203.371826,288.405975 
	C204.365585,285.759674 206.033432,285.123322 208.677826,285.140717 
	C224.487732,285.244781 240.298630,285.198486 256.796204,285.178772 
	C257.483215,285.154938 257.940002,285.008026 257.940002,285.008026 
	C258.134979,285.092407 258.329987,285.176819 258.996765,285.307434 
	C259.468597,285.353699 259.811371,285.111755 259.811371,285.111755 
	C263.872192,285.170532 267.932983,285.229309 272.540161,285.510864 
	C273.420502,285.599945 273.754517,285.466248 274.088531,285.332550 
	C286.054932,285.311920 298.021332,285.291290 310.535065,285.502045 
	C311.418457,285.607666 311.754486,285.481903 312.090515,285.356110 
	C318.063141,285.306885 324.035736,285.257629 330.687988,285.502838 
	C332.605377,285.642395 333.843109,285.487518 335.080872,285.332642 
	C335.789551,285.306732 336.498199,285.280823 337.649414,285.495605 
	C338.423126,285.588745 338.754364,285.441132 339.085571,285.293518 
M436.500092,358.805603 
	C407.870422,358.805603 379.240784,358.805603 350.394684,358.805603 
	C336.363922,396.480316 322.385468,434.014618 308.198486,472.108826 
	C331.564148,472.108826 353.870270,472.221588 376.174774,472.078613 
	C400.733307,471.921204 425.303802,471.920349 449.842255,471.073425 
	C462.096283,470.650482 472.657959,464.907257 478.879852,454.183441 
	C483.887848,445.551849 487.279846,435.933655 490.930603,426.574463 
	C497.334137,410.158264 503.508362,393.649384 509.526520,377.087708 
	C511.939117,370.448334 509.554810,363.192963 504.360413,361.167084 
	C500.940552,359.833282 497.109283,358.976318 493.449829,358.932190 
	C474.802155,358.707153 456.150421,358.816650 436.500092,358.805603 
z"/>
<path fill="#C4C4C4" opacity="1.000000" stroke="none" 
	d="
M458.179108,878.358154 
	C459.227722,877.631409 460.445312,877.032898 461.663635,877.031494 
	C497.944611,876.989197 534.225647,877.004333 570.506653,877.027466 
	C571.156860,877.027893 571.807007,877.236328 572.726929,877.937927 
	C572.979919,878.706543 572.963074,878.885010 572.940796,879.026001 
	C572.935364,878.988586 572.985474,878.931946 572.985474,878.931946 
	C567.997253,878.954041 563.003418,878.833618 558.021912,879.027832 
	C547.361267,879.443481 536.705505,880.459229 526.050537,880.422546 
	C512.803589,880.376892 499.562378,879.411255 486.313049,879.047241 
	C478.321960,878.827698 470.320221,879.006409 462.323334,878.980591 
	C460.998169,878.976318 459.673370,878.840027 458.179108,878.358154 
z"/>
<path fill="#C4C4C4" opacity="1.000000" stroke="none" 
	d="
M323.179199,878.387695 
	C324.219452,877.658997 325.435364,877.050964 326.652252,877.049072 
	C359.600342,876.996704 392.548553,877.004517 425.496735,877.018799 
	C426.148071,877.019043 426.799347,877.216858 427.721100,877.643311 
	C422.752258,880.444092 417.364410,880.614441 411.205383,878.957703 
	C410.044250,879.183777 409.539642,879.453918 409.035034,879.724121 
	C406.642670,879.807007 404.250366,879.890015 401.244629,879.671509 
	C399.764374,879.540039 398.897491,879.709961 398.030640,879.879944 
	C397.855713,879.907776 397.680786,879.935608 397.215607,879.602051 
	C394.627197,879.453735 392.329071,879.666870 390.030914,879.880005 
	C389.846008,879.901306 389.661133,879.922546 389.142151,879.481934 
	C385.823456,879.027588 382.838837,879.035095 379.854248,879.042664 
	C361.021271,878.958679 342.188263,878.874695 323.179199,878.387695 
z"/>
<path fill="#C4C4C4" opacity="1.000000" stroke="none" 
	d="
M580.003235,877.982117 
	C581.713257,877.656982 583.423645,877.051147 585.133179,877.053650 
	C594.241089,877.066833 603.348816,877.232300 612.726929,877.666504 
	C609.881714,878.329102 606.772766,878.865417 603.649109,878.972473 
	C596.057129,879.232788 588.458374,879.293762 580.419800,879.503784 
	C579.977295,879.572632 580.024231,879.595947 579.989075,879.192871 
	C579.970337,878.520630 579.986816,878.251343 580.003235,877.982117 
z"/>
<path fill="#E1E1E1" opacity="1.000000" stroke="none" 
	d="
M636.240601,877.885376 
	C636.240601,877.885437 636.637329,877.890686 636.992981,878.357544 
	C648.907898,878.926575 660.467224,879.028687 671.956604,879.260132 
	C671.886719,879.389343 671.956177,879.674805 671.956177,879.674805 
	C658.449097,879.674805 644.942078,879.674805 631.434998,879.674805 
	C631.398010,879.559326 631.361023,879.443848 631.324097,879.328308 
	C632.128967,879.139038 632.933899,878.949707 633.864319,878.382202 
	C633.989807,878.003906 634.357971,877.885315 634.719543,878.062866 
	C635.467590,878.122070 635.854065,878.003723 636.240601,877.885376 
z"/>
<path fill="#C4C4C4" opacity="1.000000" stroke="none" 
	d="
M672.373291,879.774231 
	C671.956177,879.674805 671.886719,879.389343 671.968750,878.970337 
	C672.053589,878.358093 672.056274,878.164734 672.058960,877.971436 
	C678.523254,877.754944 684.987488,877.538513 691.721680,877.643066 
	C689.345276,878.308289 686.705811,878.724121 684.050964,878.979370 
	C680.303406,879.339783 676.544495,879.581299 672.373291,879.774231 
z"/>
<path fill="#DEDEDE" opacity="1.000000" stroke="none" 
	d="
M380.047058,879.430786 
	C382.838837,879.035095 385.823456,879.027588 388.885559,879.371948 
	C386.055328,879.755554 383.147614,879.787170 380.047058,879.430786 
z"/>
<path fill="#C4C4C4" opacity="1.000000" stroke="none" 
	d="
M451.112000,878.302490 
	C452.219635,877.755127 453.428680,877.562866 454.813232,877.661255 
	C453.730286,878.187134 452.471832,878.422363 451.112000,878.302490 
z"/>
<path fill="#C4C4C4" opacity="1.000000" stroke="none" 
	d="
M258.600769,875.837280 
	C259.003845,876.349609 259.067688,876.804810 259.061859,877.598145 
	C258.131287,876.690369 257.270355,875.444519 256.409424,874.198730 
	C256.774567,873.979858 257.139679,873.760986 257.504822,873.542114 
	C257.757050,874.288208 258.009277,875.034241 258.600769,875.837280 
z"/>
<path fill="#C4C4C4" opacity="1.000000" stroke="none" 
	d="
M432.111328,878.313843 
	C433.218750,877.771606 434.429535,877.583069 435.817322,877.685120 
	C434.734467,878.206299 433.474579,878.436890 432.111328,878.313843 
z"/>
<path fill="#DEDEDE" opacity="1.000000" stroke="none" 
	d="
M390.459076,879.964600 
	C392.329071,879.666870 394.627197,879.453735 396.953430,879.559204 
	C394.950073,879.934875 392.918640,879.992004 390.459076,879.964600 
z"/>
<path fill="#C4C4C4" opacity="1.000000" stroke="none" 
	d="
M299.111145,878.319214 
	C300.217896,877.776428 301.428955,877.586853 302.817444,877.687744 
	C301.735077,878.209595 300.475250,878.441040 299.111145,878.319214 
z"/>
<path fill="#C4C4C4" opacity="1.000000" stroke="none" 
	d="
M314.111023,878.328979 
	C315.216278,877.785706 316.427948,877.594604 317.817963,877.693665 
	C316.736694,878.216248 315.477051,878.448669 314.111023,878.328979 
z"/>
<path fill="#D0D0D0" opacity="1.000000" stroke="none" 
	d="
M575.948547,878.024170 
	C576.131897,878.016907 576.315247,878.009583 576.798462,878.224609 
	C577.098206,878.446899 577.033997,878.868469 577.088074,879.097351 
	C577.142151,879.326233 577.047974,879.787109 577.047974,879.787109 
	C575.798218,879.736084 574.548401,879.684998 573.142090,879.282959 
	C572.985474,878.931946 572.935364,878.988586 573.299316,879.019287 
	C574.424988,878.708069 575.186768,878.366089 575.948547,878.024170 
z"/>
<path fill="#ABAAAB" opacity="1.000000" stroke="none" 
	d="
M334.681366,285.190796 
	C333.843109,285.487518 332.605377,285.642395 331.149780,285.548889 
	C332.048615,285.216644 333.165222,285.132812 334.681366,285.190796 
z"/>
<path fill="#ABAAAB" opacity="1.000000" stroke="none" 
	d="
M371.930664,284.810913 
	C371.385193,285.333160 370.790222,285.516174 370.109467,285.427063 
	C370.642853,284.927155 371.261993,284.699432 371.930664,284.810913 
z"/>
<path fill="#DEDEDE" opacity="1.000000" stroke="none" 
	d="
M409.329224,879.776245 
	C409.539642,879.453918 410.044250,879.183777 410.778503,878.958130 
	C410.546509,879.277893 410.084961,879.553162 409.329224,879.776245 
z"/>
<path fill="#DEDEDE" opacity="1.000000" stroke="none" 
	d="
M398.392273,879.964355 
	C398.897491,879.709961 399.764374,879.540039 400.796814,879.625610 
	C400.226227,879.937012 399.490051,879.992920 398.392273,879.964355 
z"/>
<path fill="#FFFFFF" opacity="1.000000" stroke="none" 
	d="
M577.416565,879.885864 
	C577.047974,879.787109 577.142151,879.326233 577.484253,879.158813 
	C578.559021,879.192871 579.291626,879.394409 580.024231,879.595947 
	C580.024231,879.595947 579.977295,879.572632 579.962341,879.549927 
	C579.226624,879.679749 578.505920,879.832153 577.416565,879.885864 
z"/>
<path fill="#ABAAAB" opacity="1.000000" stroke="none" 
	d="
M258.016968,284.631317 
	C257.940002,285.008026 257.483215,285.154938 257.257111,285.074829 
	C257.215271,284.340698 257.399536,283.686676 257.583832,283.032684 
	C257.753876,283.440002 257.923920,283.847290 258.016968,284.631317 
z"/>
<path fill="#FEFEFE" opacity="1.000000" stroke="none" 
	d="
M676.381348,244.340027 
	C676.120850,244.570099 675.733521,244.682678 675.346191,244.795258 
	C675.371582,244.557144 675.397034,244.319000 675.708313,244.037827 
	C675.994202,243.994781 676.254517,244.222519 676.381348,244.340027 
z"/>
<path fill="#C4C4C4" opacity="1.000000" stroke="none" 
	d="
M307.046173,878.267700 
	C307.013794,877.992310 307.500183,877.903748 307.743347,877.948120 
	C307.683868,878.175964 307.381226,878.359497 307.046173,878.267700 
z"/>
<path fill="#ABAAAB" opacity="1.000000" stroke="none" 
	d="
M259.863770,284.833069 
	C259.811371,285.111755 259.468597,285.353699 259.304199,285.223389 
	C259.398590,284.913513 259.657379,284.733948 259.863770,284.833069 
z"/>
<path fill="#C4C4C4" opacity="1.000000" stroke="none" 
	d="
M732.141479,878.179321 
	C732.157104,877.917114 732.470703,877.686584 732.634644,877.791504 
	C732.574341,878.078125 732.350098,878.259827 732.141479,878.179321 
z"/>
<path fill="#C4C4C4" opacity="1.000000" stroke="none" 
	d="
M724.085938,878.230469 
	C724.078552,877.958191 724.500916,877.810974 724.712036,877.884521 
	C724.646606,878.139587 724.369934,878.321167 724.085938,878.230469 
z"/>
<path fill="#C4C4C4" opacity="1.000000" stroke="none" 
	d="
M707.061523,878.253052 
	C707.038330,877.979004 707.499695,877.866028 707.730469,877.922241 
	C707.669006,878.161316 707.376831,878.344238 707.061523,878.253052 
z"/>
<path fill="#ABAAAB" opacity="1.000000" stroke="none" 
	d="
M361.928619,284.764374 
	C361.945343,285.037720 361.513580,285.244415 361.294434,285.148193 
	C361.354156,284.864960 361.633026,284.678009 361.928619,284.764374 
z"/>
<path fill="#ABAAAB" opacity="1.000000" stroke="none" 
	d="
M273.794617,285.210510 
	C273.754517,285.466248 273.420502,285.599945 272.999695,285.533142 
	C273.108856,285.251221 273.304779,285.169830 273.794617,285.210510 
z"/>
<path fill="#C4C4C4" opacity="1.000000" stroke="none" 
	d="
M628.052795,878.261353 
	C628.024414,877.986572 628.500183,877.888245 628.738037,877.937378 
	C628.677673,878.169800 628.379456,878.352966 628.052795,878.261353 
z"/>
<path fill="#ABAAAB" opacity="1.000000" stroke="none" 
	d="
M311.798340,285.223907 
	C311.754486,285.481903 311.418457,285.607666 310.997192,285.533203 
	C311.110016,285.252594 311.308075,285.172150 311.798340,285.223907 
z"/>
<path fill="#ABAAAB" opacity="1.000000" stroke="none" 
	d="
M338.788513,285.188538 
	C338.754364,285.441132 338.423126,285.588745 338.002319,285.534515 
	C338.105652,285.249634 338.298584,285.166565 338.788513,285.188538 
z"/>
<path fill="#ABAAAB" opacity="1.000000" stroke="none" 
	d="
M422.796814,285.230804 
	C422.755219,285.495026 422.419312,285.624237 421.996521,285.554779 
	C422.107269,285.269379 422.304901,285.182617 422.796814,285.230804 
z"/>
<path fill="#C4C4C4" opacity="1.000000" stroke="none" 
	d="
M443.055237,878.259033 
	C443.028168,877.984497 443.500031,877.881592 443.735962,877.932922 
	C443.675385,878.167358 443.378815,878.350525 443.055237,878.259033 
z"/>
<path fill="#CBCCCE" opacity="1.000000" stroke="none" 
	d="
M757.222046,874.774536 
	C757.268250,874.586731 757.570740,874.504517 757.949951,874.610474 
	C757.843872,874.825806 757.661133,874.852905 757.222046,874.774536 
z"/>
<path fill="#CBCCCE" opacity="1.000000" stroke="none" 
	d="
M751.240173,875.756348 
	C751.259705,875.510681 751.554321,875.362854 751.937439,875.392944 
	C751.855774,875.665222 751.685547,875.759705 751.240173,875.756348 
z"/>
<path fill="#000000" opacity="1.000000" stroke="none" 
	d="
M468.711914,802.852173 
	C464.290863,802.783508 459.909637,801.334351 456.094818,802.248535 
	C444.787476,804.958313 433.479309,801.198303 422.168793,803.113525 
	C417.769897,803.858459 412.961365,801.842468 408.312653,801.602783 
	C406.085297,801.487915 403.802368,803.018066 401.533112,803.052917 
	C390.732697,803.219116 379.928375,803.127258 368.804321,803.127258 
	C374.750854,787.003967 380.792664,770.618713 386.837341,754.234497 
	C389.318909,747.508179 392.349976,740.923645 394.123444,734.015869 
	C395.600616,728.262024 399.067169,726.840881 404.083771,726.982666 
	C412.413788,727.218079 420.739197,727.639465 429.070099,727.811646 
	C435.368866,727.941895 441.673218,727.774292 447.974915,727.795349 
	C457.467377,727.827148 466.960083,727.875549 476.451965,727.979980 
	C482.302948,728.044312 488.153076,728.348572 494.002869,728.329956 
	C507.500305,728.286987 520.998962,728.206543 534.493835,727.958313 
	C543.099731,727.800110 551.698303,727.094849 560.302612,727.044250 
	C567.436890,727.002319 574.573242,727.728027 581.711670,727.795715 
	C587.155701,727.847351 592.607178,727.172241 598.050415,727.236572 
	C604.307068,727.310425 610.742310,727.014099 616.772278,728.353577 
	C628.225403,730.897644 633.844421,738.854736 630.806213,750.223145 
	C627.613037,762.171326 623.437683,774.242310 617.368896,784.942261 
	C609.213806,799.320435 594.639465,803.345032 578.770081,803.236511 
	C574.100647,803.204651 569.429871,803.758423 564.756226,803.835754 
	C561.826233,803.884338 558.890747,803.527039 555.956116,803.383728 
	C549.359314,803.061523 542.764526,802.642944 536.163513,802.478027 
	C527.971252,802.273438 519.771484,802.131470 511.578918,802.245422 
	C502.548035,802.371033 493.522736,802.867371 484.492065,803.068970 
	C483.178894,803.098389 481.849182,802.387024 480.784393,802.090149 
	C477.019897,804.762878 472.898895,802.303650 468.711914,802.852173 
z"/>
<path fill="#000000" opacity="1.000000" stroke="none" 
	d="
M669.130554,593.060059 
	C666.112854,603.136108 663.176819,612.803894 660.033813,622.403992 
	C657.045410,631.531677 652.203979,639.532959 644.862732,645.875488 
	C638.822327,651.094055 631.522522,653.876282 623.820007,654.060486 
	C596.260986,654.719360 568.689087,654.912781 541.120850,655.089539 
	C518.359192,655.235474 495.595734,655.109070 472.833099,655.102844 
	C465.883850,655.100891 458.886566,655.611450 451.997101,654.968201 
	C442.700562,654.100037 433.450928,655.682922 423.549316,654.877441 
	C429.221832,639.718628 434.785278,624.840393 440.357117,609.965332 
	C443.897797,600.512817 447.238770,590.974792 451.184601,581.694214 
	C451.937775,579.922791 454.983978,578.480042 457.177185,578.114136 
	C460.743622,577.519226 464.479156,577.929565 468.143341,577.930176 
	C525.271606,577.938904 582.399963,577.895691 639.527893,578.041138 
	C645.534241,578.056519 651.604004,578.825500 657.522339,579.910339 
	C662.542725,580.830566 666.855652,583.141479 667.095947,589.395691 
	C667.138184,590.495544 668.415039,591.547974 669.130554,593.060059 
z"/>
<path fill="#000000" opacity="1.000000" stroke="none" 
	d="
M671.588867,877.921021 
	C672.056274,878.164734 672.053589,878.358093 672.038696,878.841125 
	C660.467224,879.028687 648.907898,878.926575 637.182739,878.415405 
	C648.384155,877.961060 659.751404,877.915833 671.588867,877.921021 
z"/>
<path fill="#000000" opacity="1.000000" stroke="none" 
	d="
M575.584229,877.949768 
	C575.186768,878.366089 574.424988,878.708069 573.304688,879.056763 
	C572.963074,878.885010 572.979919,878.706543 572.997559,878.259277 
	C573.738892,877.952087 574.479431,877.913757 575.584229,877.949768 
z"/>
<path fill="#000000" opacity="1.000000" stroke="none" 
	d="
M579.989075,879.192871 
	C579.291626,879.394409 578.559021,879.192871 577.430176,878.929932 
	C577.033997,878.868469 577.098206,878.446899 577.073486,878.235168 
	C577.788147,877.972168 578.527588,877.920959 579.635132,877.925903 
	C579.986816,878.251343 579.970337,878.520630 579.989075,879.192871 
z"/>
<path fill="#C4C4C4" opacity="1.000000" stroke="none" 
	d="
M636.096680,877.688354 
	C635.854065,878.003723 635.467590,878.122070 634.912964,878.062012 
	C635.147400,877.752869 635.550049,877.622131 636.096680,877.688354 
z"/>
<path fill="#000000" opacity="1.000000" stroke="none" 
	d="
M437.000122,358.807312 
	C456.150421,358.816650 474.802155,358.707153 493.449829,358.932190 
	C497.109283,358.976318 500.940552,359.833282 504.360413,361.167084 
	C509.554810,363.192963 511.939117,370.448334 509.526520,377.087708 
	C503.508362,393.649384 497.334137,410.158264 490.930603,426.574463 
	C487.279846,435.933655 483.887848,445.551849 478.879852,454.183441 
	C472.657959,464.907257 462.096283,470.650482 449.842255,471.073425 
	C425.303802,471.920349 400.733307,471.921204 376.174774,472.078613 
	C353.870270,472.221588 331.564148,472.108826 308.198486,472.108826 
	C322.385468,434.014618 336.363922,396.480316 350.394684,358.805603 
	C379.240784,358.805603 407.870422,358.805603 437.000122,358.807312 
z"/>
</svg>