<?xml version="1.0" standalone="no"?>
<!DOCTYPE svg PUBLIC "-//W3C//DTD SVG 20010904//EN"
 "http://www.w3.org/TR/2001/REC-SVG-20010904/DTD/svg10.dtd">
<svg version="1.0" xmlns="http://www.w3.org/2000/svg"
 width="1024.000000pt" height="1024.000000pt" viewBox="0 0 1024.000000 1024.000000"
 preserveAspectRatio="xMidYMid meet">

<g transform="translate(0.000000,1024.000000) scale(0.100000,-0.100000)"
fill="#000000" stroke="none">
<path d="M2535 8673 c-118 -317 -225 -606 -225 -609 0 -2 919 -4 2043 -4 2225
0 2103 3 2219 -56 171 -87 280 -297 249 -478 -7 -41 -79 -243 -182 -509 -94
-243 -204 -527 -244 -632 -40 -104 -96 -248 -123 -320 l-50 -130 856 -5 857
-5 57 -23 c113 -46 196 -126 250 -239 24 -50 31 -81 35 -155 7 -115 -3 -165
-67 -327 -160 -411 -580 -1494 -580 -1497 0 -2 67 -4 150 -4 125 0 158 -3 203
-20 57 -21 104 -64 132 -120 23 -45 31 -147 16 -206 -18 -69 -278 -739 -314
-809 -47 -90 -164 -203 -257 -248 -116 -57 -185 -67 -460 -67 l-239 0 31 83
c17 45 71 201 121 346 l90 265 1 120 c1 99 -3 134 -21 191 -29 91 -70 154
-132 203 l-50 40 67 40 c191 113 283 254 412 627 107 308 111 327 117 466 5
112 3 135 -18 204 -42 143 -140 258 -272 320 -144 68 -133 68 -943 72 l-730 4
-78 -94 c-138 -168 -303 -297 -511 -397 -148 -72 -257 -111 -406 -144 -168
-37 -279 -46 -568 -46 l-259 0 -15 -37 c-16 -42 -243 -647 -482 -1288 -84
-225 -230 -617 -325 -870 -95 -253 -201 -536 -235 -630 -35 -93 -66 -178 -70
-188 -7 -17 102 -17 2436 -14 l2444 3 95 21 c252 57 414 134 596 285 148 122
307 345 399 558 84 196 276 695 299 781 57 206 57 398 0 597 -52 185 -182 388
-296 462 -29 19 -55 36 -57 37 -2 2 8 12 22 23 36 28 147 164 190 233 86 134
227 462 276 637 126 456 19 888 -296 1207 -162 163 -338 259 -578 315 -81 19
-128 22 -452 25 -200 3 -363 8 -363 12 0 4 36 99 81 212 122 308 165 427 182
504 63 282 -2 600 -177 871 -76 117 -242 280 -358 352 -160 99 -324 153 -519
171 -76 7 -752 11 -2020 11 l-1906 0 -48 -127z m4055 -4222 c83 -46 111 -109
85 -199 -26 -88 -113 -312 -138 -352 -38 -62 -100 -121 -157 -150 -110 -55
-92 -54 -1165 -52 -867 2 -990 4 -987 17 3 13 174 471 254 678 l30 77 1026 -2
c848 -3 1031 -5 1052 -17z m-419 -1482 c81 -25 139 -97 139 -174 0 -43 -60
-234 -105 -332 -64 -140 -175 -220 -336 -242 -62 -9 -366 -11 -1141 -9 l-1056
3 57 155 c32 85 95 257 141 383 l84 227 1090 0 c787 0 1099 -3 1127 -11z"/>
<path d="M2031 7373 c-5 -10 -48 -121 -96 -248 -48 -126 -109 -286 -135 -355
-26 -69 -93 -244 -148 -390 -133 -349 -445 -1168 -533 -1395 -38 -100 -69
-184 -69 -188 0 -4 188 -6 417 -5 l417 3 57 145 c30 80 131 339 224 575 259
665 411 1056 426 1098 11 32 17 37 45 37 44 0 58 -20 52 -78 -3 -27 -67 -206
-148 -417 -155 -403 -371 -965 -481 -1250 -39 -99 -90 -232 -114 -295 -24 -63
-78 -205 -120 -315 -119 -311 -325 -862 -325 -869 0 -3 180 -6 401 -6 l400 0
16 38 c8 20 117 305 240 632 124 327 234 619 245 649 l21 54 831 -7 c885 -8
934 -6 1113 39 279 71 520 262 648 514 15 30 46 104 69 165 38 99 170 441 338
876 102 263 101 260 102 405 1 150 -11 203 -71 304 -69 116 -180 207 -309 252
-138 49 -101 48 -1856 49 -1559 0 -1648 -1 -1657 -17z m2974 -721 c58 -20 95
-66 95 -118 0 -19 -39 -136 -86 -261 -48 -126 -106 -281 -130 -345 -94 -253
-158 -330 -319 -381 -70 -22 -72 -22 -779 -20 -390 2 -711 5 -713 6 -3 4 142
395 360 975 l61 162 730 0 c662 -1 736 -2 781 -18z"/>
</g>
</svg>
